PathFileType	4	(X/Y/Z)	Patient4_TMGait_0pt7_01_left_17.trc.trc
DataRate	CameraRate	NumFrames	NumMarkers	Units	OrigDataRate	OrigDataStartFrame	OrigNumFrames
85.889570552147	85.889570552147	6	33	mm	85.889570552147	71	       141
Frame#	Time	Sacral			L.Shoulder			Chest			R.Shoulder			Neck			R.ASIS			L.ASIS			R.Thigh.Superior			R.Thigh.Lateral			R.Thigh.Inferior			R.Patella			L.Thigh.Superior			L.Thigh.Lateral			L.Thigh.Inferior			L.Patella			L.Shank.Superior			L.Shank.Lateral			L.Shank.Inferior			R.Shank.Superior			R.Shank.Lateral			R.Shank.Inferior			R.Heel			R.Midfoot.Superior			R.Midfoot.Lateral			R.Toe			L.Heel			L.Midfoot.Lateral			L.Midfoot.Superior			L.Toe			L.Elbow			L.Wrist			R.Elbow			R.Wrist			
		X1	Y1	Z1	X2	Y2	Z2	X3	Y3	Z3	X4	Y4	Z4	X5	Y5	Z5	X6	Y6	Z6	X7	Y7	Z7	X8	Y8	Z8	X9	Y9	Z9	X10	Y10	Z10	X11	Y11	Z11	X12	Y12	Z12	X13	Y13	Z13	X14	Y14	Z14	X15	Y15	Z15	X16	Y16	Z16	X17	Y17	Z17	X18	Y18	Z18	X19	Y19	Z19	X20	Y20	Z20	X21	Y21	Z21	X22	Y22	Z22	X23	Y23	Z23	X24	Y24	Z24	X25	Y25	Z25	X26	Y26	Z26	X27	Y27	Z27	X28	Y28	Z28	X29	Y29	Z29	X30	Y30	Z30	X31	Y31	Z31	X32	Y32	Z32	X33	Y33	Z33	

71	20.295000000000	817.292458231366	985.938365264211	426.165929375005	1005.322322994592	1414.172311560293	247.121976742652	1091.141101244780	1348.727867250932	420.252216159247	989.756475580963	1429.220869533118	581.174467271025	991.870947597946	1479.040745566702	399.064093433927	1038.123680387085	931.719734915364	561.580355890437	1042.861409015510	951.322741793866	283.968443597481	1119.458448030391	763.087938942667	537.909079608539	1079.934391784726	639.024045328130	611.855796369814	1174.095932010521	607.548364841240	535.942458695324	1210.058489223710	527.610743584217	553.583168377282	1036.592157908538	722.992560213111	311.869252925348	916.098624614646	632.760442927924	245.670392950762	967.891031872160	537.184374308132	312.969070664478	949.507370697823	471.482610103073	322.141029100172	915.261892837088	406.545193398441	313.493376268731	812.443968223066	303.458888612717	262.341121615357	847.318188025904	188.030800115785	337.008967340085	1201.395545140854	437.768030681691	564.132931679600	1153.781215552460	321.028121150062	625.553885197036	1231.479449954400	240.166000186557	577.202631926708	1154.465806146691	48.707282276243	545.954223569113	1312.025174046066	129.660548663388	591.230841906608	1236.554286643239	50.011250068963	620.597207494646	1437.319760319873	98.788348827169	619.963591702358	706.758159710542	39.025648220437	382.354280822785	779.317588443415	34.941122773688	300.985304979925	863.216025851900	94.926969659485	326.375086021425	991.153816031746	41.487724023147	296.008658947843	1084.594433144514	1098.381905944921	92.645091352933	1335.209505297406	1091.497407227419	142.696514624865	827.573745652796	1136.673388191897	708.007863397776	775.947466914122	881.919774868947	738.945434910723	
72	20.306642857143	819.179337137735	983.675842050321	429.078208902688	1005.097655929532	1412.383730111961	249.448016402347	1091.557324132865	1347.459373899330	422.479560741677	989.852351178770	1427.678813773196	583.445562287195	991.764773213939	1477.235065195258	401.330767476618	1040.864130622028	929.514166131660	563.432935031645	1044.410921931278	949.579960563483	285.784219069133	1122.075847248994	760.009565430657	539.343798007401	1080.354687105643	635.360368918454	611.476772357647	1174.952347533932	604.121956626612	536.273891085656	1209.188783541826	523.129287274361	552.589997765266	1037.244160850380	720.937265297219	313.257119429782	915.884584289180	631.476864323460	247.307151867516	967.057388261705	535.348927498010	314.443670723066	948.004733331788	469.322498441090	323.610134799174	912.650556230565	404.730805748546	314.778942575936	808.121698184961	303.472648316490	263.308909404112	840.966537996660	187.293381794930	337.541445291768	1199.521036071192	432.891718753064	562.868980509139	1149.978136289934	316.684067822247	623.510999274157	1226.188986839371	235.026709615250	574.788813419486	1145.886689075881	45.970449059258	542.929528170258	1304.393620842422	123.918126816390	588.204012820577	1227.586888154063	46.495588880473	618.081608697002	1429.102100095487	91.030346010472	617.736761718680	698.590334731462	39.281914380610	382.241064377223	771.210639852906	35.036569474446	300.967972798407	855.258390970321	94.909416236273	326.434035042790	983.067557057867	41.133139205388	295.940105336373	1086.057201583631	1097.313011418326	94.953843641391	1335.907942617335	1101.978569820983	146.607522616422	822.939080500500	1138.532358146157	709.141391252955	768.099236726376	884.187976429528	739.089142819840	
73	20.318285714286	821.137960561290	981.591488743583	432.249825461371	1004.951072000861	1410.773019854797	251.901299144576	1092.127591199866	1346.327306172866	424.789140346454	990.210167884691	1426.264781612231	585.884974389886	991.832965221656	1475.623024486311	403.776287051881	1043.752742698796	927.553324179068	565.319035653477	1045.931857092379	947.890749057114	287.717162512016	1125.114120702868	757.298930009521	540.708234252976	1081.200926772096	632.156814886569	611.028659951187	1176.142261930235	601.096261952281	536.438444264561	1208.690110394797	518.849832288554	551.450429911070	1038.181124637018	719.031072741129	314.779046534720	916.020721793047	630.220737315875	249.214580682667	966.810527051374	533.543445333269	316.051683487062	947.157185653698	467.068023350187	325.208556875726	910.526969141476	402.881485441083	316.211426398942	804.134353753026	303.679381798633	264.424831527797	834.812737561167	186.658358149392	338.088666753413	1197.674498352466	428.192799412323	561.482600690068	1145.955109323460	312.733162727399	621.600822172521	1220.119608177428	229.945211215293	572.333238921945	1135.470649529693	43.862724012458	540.236774152281	1295.399906309866	118.031960541761	585.117403063613	1216.909023342666	43.327044131711	615.809636970275	1419.431089329484	82.440808434961	615.278944466834	690.441323410951	39.829045307272	382.082868257339	763.144584524333	35.244466546538	300.933953572630	847.418228605281	94.952931198020	326.437422230590	975.030022115859	40.741192944832	295.849607459277	1087.010110309427	1096.089567478324	97.507949513376	1335.732149656497	1111.302053663555	150.542538273907	819.400522563658	1139.902825515717	710.275190760254	761.819360525634	885.866238563088	739.245414945849	
74	20.329928571429	823.138269583595	979.783332561045	435.623138912449	1004.931957258065	1409.426157387404	254.465139623352	1092.871285123261	1345.393057375925	427.168402708748	990.858773325960	1425.044638808683	588.475578579469	992.123085410183	1474.290322912877	406.385980737293	1046.720003059216	925.949324162975	567.259151813820	1047.415152991186	946.335865351699	289.780118287031	1128.391599524440	755.000309534531	542.012791494432	1082.403555781789	629.541181984962	610.665829328222	1177.487720302432	598.526379582837	536.472207494240	1208.463104052654	514.954901726320	550.277271039947	1039.344203020841	717.359431893765	316.433305782980	916.447091075955	629.075294290328	251.376409424747	967.126267311052	531.847477873138	317.746584732161	946.970113710926	464.784251536810	326.843323305388	908.869708703998	401.088623798916	317.717029648571	800.451159729491	304.176803568617	265.662261971914	828.877854794839	186.219528382264	338.595700981500	1195.910388237368	423.898462380295	560.111674180425	1142.012657973619	309.319300254258	619.996408762313	1213.731322215896	225.207933304434	569.996884141720	1124.094235254110	42.379203908292	538.012228779533	1285.730323632864	112.436574610109	582.153308038748	1205.403082959229	40.668444687964	613.901598130611	1409.064136636241	73.788191621864	612.762153498144	682.333058252512	40.800183640679	381.872997923496	755.128537925919	35.620231881476	300.877285526456	839.741206704899	95.078174444130	326.347603774393	967.044116759180	40.325934000273	295.738637614573	1087.393218951226	1094.732082964358	100.321219894813	1334.771472702618	1119.358704262347	154.473068627453	817.090467171958	1140.722263148775	711.454339165467	757.222598477950	886.901899593914	739.438149326845	
75	20.341571428571	825.146045546828	978.351998441730	439.139440550561	1005.083154597985	1408.426386767677	257.118343529429	1093.799328771382	1344.720319012241	429.602320548133	991.814629001629	1424.089600909015	591.194069588079	992.674224964470	1473.318122964533	409.134946487167	1049.686452168459	924.802373304203	569.285172572167	1048.843489665344	945.002909723061	291.982714676740	1131.710653838989	753.167972269088	543.282464970251	1083.886615900920	627.621393449351	610.544171252147	1178.820666129848	596.468894747951	536.439283049552	1208.396934623931	511.609386025514	549.212530185528	1040.683588980192	716.012020869626	318.217058705116	917.134381678093	628.114741649480	253.764354628559	968.016017658079	530.340727700451	319.475208684785	947.483194378276	462.540093268301	328.409432963607	907.694762020402	399.438793169398	319.210377708246	797.078310966693	305.062510491989	266.987980299714	823.207304308500	186.072645121248	339.004521728999	1194.252603721666	420.200530790355	558.903070428042	1138.363771827713	306.560140462132	618.844081507800	1207.385685252761	221.058475513504	567.929078923513	1112.515115075869	41.473531622347	536.326326953059	1275.944476711108	107.506824033485	579.490725811581	1193.808900766377	38.620169612020	612.431946057809	1398.614585489993	65.773549184891	610.386471743654	674.302760669660	42.347041329173	381.606811993137	747.176528952142	36.234096647201	300.793045070881	832.283329278692	95.305169104666	326.125870855492	959.108919976328	39.903997606835	295.612336199741	1087.148743299533	1093.270240354099	103.408918143803	1333.118194282385	1126.050215307833	158.378017635294	816.115922619068	1140.961852451731	712.732467463606	754.437002635112	887.265288650665	739.686960746791	
76	20.353214285714	827.126087745730	977.390120539878	442.745492902700	1005.437830361233	1407.845749753186	259.837737555479	1094.912347983393	1344.367216660092	432.075143026995	993.080234624497	1423.470007334064	594.012449651401	993.510861843525	1472.773372167285	411.989896179395	1052.570352740734	924.187394685470	571.437029348993	1050.189594858531	943.979033070146	294.330413972735	1134.877147776565	751.851574144753	544.560639502175	1085.557531708688	626.459732314808	610.797714266214	1179.994584710939	594.960698157225	536.432233450599	1208.363060682206	508.924017310241	548.412242854073	1042.168000428665	715.072012307586	320.123855364245	918.095450374128	627.391827975470	256.337610575528	969.535608461116	529.091853308418	321.179864552949	948.773970185221	460.398910534764	329.798337930079	907.063043527585	398.001850174006	320.601742656819	794.069444942924	306.423349911845	268.363777181952	817.874234059360	186.306893912822	339.259757332413	1192.673983757749	417.220871225530	557.994918354214	1135.091279991665	304.517429722160	618.240297197152	1201.299429069597	217.657223669887	566.249538176153	1101.291391815681	41.059885469351	535.183523601787	1266.425271581555	103.499447419791	577.276264066011	1182.652124986891	37.202961263984	611.422009298187	1388.501816600805	58.922139110494	608.334027890529	666.406690787801	44.633280071574	381.282136438041	739.310319212355	37.172625934548	300.677819680936	825.109570524196	95.652702593861	325.737396396137	951.218649718457	39.491166776031	295.479681236171	1086.224836595421	1091.746069177402	106.784359406038	1330.864256055839	1131.293930021675	162.243955496099	816.545597737081	1140.633422290242	714.165854574019	753.590812878085	886.954455938215	740.008547675627	
